<?xml version="1.0" encoding="utf-8"?>
<!-- Generator: Adobe Illustrator 27.5.0, SVG Export Plug-In . SVG Version: 6.00 Build 0)  -->
<svg version="1.1" id="Layer_1" xmlns="http://www.w3.org/2000/svg" xmlns:xlink="http://www.w3.org/1999/xlink" x="0px" y="0px"
	 viewBox="0 0 1500 1500" style="enable-background:new 0 0 1500 1500;" xml:space="preserve">
<style type="text/css">
	.st0{fill:#010101;}
	.st1{fill:#FFFFFF;}
	.st2{font-family:'FluxischElse-Regular';}
	.st3{font-size:436.4834px;}
</style>
<path class="st0" d="M1302.7,1057.7c3.1-4.2,10.1-19,12.2-22.4c6.9-13.5,16.3-25.7,20.5-40.6c0.7-2.4,2.1-5.2,4.2-6.6
	c7.3-4.5,10.1-11.8,13.2-19.1c2.1-5.2,4.9-10.1,10.8-12.2c1.7-0.7,3.5-2.8,3.8-4.9c2.1-11.5,7.3-21.2,16.3-29.2
	c1.4-1,2.4-3.5,2.1-4.9c-1.4-5.2,1.7-8.3,4.2-12.2c8-13.9,16.3-28.1,22.2-43.1c4.9-12.2,16-21.9,15.6-36.5c0-0.7,0.7-1.4,1-2.1
	c5.9-7.3,8.3-15.6,10.1-24.6c1.4-8.3,3.5-16.7,5.2-25c0.3-2.1,1-4.2,2.4-6.2c5.9-10.4,8.7-21.2,5.6-33c-1.4-5.6-1-10.8,2.8-15.6
	c2.1-2.8,3.1-7.6,2.1-10.1c-4.2-10.8-5.6-20.5,1.7-29.9c-2.4-3.5-5.6-5.6-6.2-8.7c-2.1-10.8-3.5-21.9-4.9-32.6
	c-1.4-10.8-1.7-22.2-4.9-32.6c-2.1-6.9-5.2-13.2-6.9-20.5c-5.9-22.2-12.2-44.8-20.8-66c-8.3-20.1-16.7-39.9-24-60.1
	c-0.7-1.7-2.1-3.1-3.1-4.5c-7.6-12.2-15.3-24.3-23.3-36.5c-2.8-4.2-4.5-9-8.3-11.8c-11.5-8.3-16.7-22.9-29.5-29.5
	c-3.5-1.7-4.9-7.3-8.3-8.7c-18.1-5.9-29.5-24.3-50-25.3c-0.7,0-1.4-0.7-2.1-1c-4.2-2.4-4.9-5.2-1.7-9c1.4-1.7,3.1-3.5,4.9-4.5
	c5.2-3.5,4.5-7.6,1.4-13.2c-4.9,1.7-9.4,3.5-13.9,5.2c0.7,3.8,2.1,6.6,1.7,9.4c-0.3,2.1-1.7,5.2-3.8,6.2c-9,4.2-22.2-3.8-22.9-13.5
	c-0.3-5.2-1-10.8-1.7-18.4c-4.5,3.1-6.9,5.2-10.4,7.6c6.2,5.6,10.4,10.8,8.7,19.4c-16-4.5-31.6-5.2-47.6-3.1c-1,0-2.1-0.3-3.1-1
	c-11.8-4.9-24.3-4.9-36.8-3.1c-8.3,1.4-17,2.1-25.3,2.4c-12.2,0.7-24,0.3-36.1,0.7c-1,0-2.1,0.7-3.1,1c-12.8,2.8-25.7,6.6-39.2,2.1
	c-4.2-1.4-7.3,1-11.1,2.4c-10.1,3.8-21.2,5.6-31.9,8c-0.7,0-1.4,0-2.1-0.7c-10.4-6.6-20.8,1-30.9,2.1c-6.9,0.7-14.2,2.4-21.9,2.8
	c-6.9,0.3-13.9,1.4-20.8,2.1c-1.7,0.3-4.2,1-5.2,0.3c-5.6-3.5-10.8-0.7-16,0.7c-3.8,1-8.3,1.4-11.8,0c-3.5-1.4-5.6-5.6-7.6-8
	c-1.4,2.1-2.8,5.9-5.2,7.3c-4.9,2.1-10.4,3.5-16,4.2c-9,1.4-18.4-1-26,7.3c-1.7,2.1-6.9,1.4-10.4,1.4c-3.1-0.3-6.6-1.4-9.7-2.8
	c-5.9-2.8-11.1-2.4-17-0.7c-5.6,1.7-12.2,2.8-17.4,1.4c-10.1-2.8-19.1-0.3-28.1,2.4c-10.4,2.8-20.5,4.9-31.6,1
	c-8-2.8-16.7-3.1-25,0.7c-4.9,2.1-10.8,2.1-16.3,2.8c-8.3,1-16.7,2.1-25.3,2.8c-3.8,0.3-9,1-11.8-1c-6.2-4.9-13.2-5.6-19.8-4.5
	c-10.8,1.7-21.2,3.5-31.9,0.7c-1.7-0.3-3.8,0-5.6,1c-5.9,4.2-10.8,1-15.3-2.1c-2.4-1.4-4.9-3.1-7.3-4.9c-2.1,0.7-3.8,1-5.6,1.7
	c-11.5,5.2-23.3,7.6-35.8,2.4c-2.1-1-5.2-0.3-7.6,0c-6.6,1-13.2,3.8-19.4,3.5c-14.2-0.7-27.8,1-41.7,4.9
	c-14.6,3.8-29.5,6.2-43.7,10.8c-10.4,3.5-20.1,9.4-30.6,13.5c-13.9,5.6-26.4,13.5-36.5,24.6c-2.4,2.8-5.2,5.6-8.7,6.6
	c-5.6,2.1-9.4,5.6-13.2,9.7c-2.8,3.5-6.2,6.2-9.7,9c-6.2,5.2-12.8,9.7-18.4,15.6c-11.5,11.5-22.6,23.6-34,35.4
	c-3.1,3.1-5.9,4.2-10.8,1.7c-8-4.2-13.2-2.4-18.4,4.9c3.1-0.3,5.9-1.4,8-0.7c2.8,1,6.2,2.4,8,4.5c2.1,2.8,1.4,6.6-2.1,8.7
	c-4.2,2.8-8.7,5.6-13.2,8c-3.1,1.7-7.3,2.4-10.1,4.9c-8,7.3-17,12.2-27.1,14.9c-11.8,3.1-21.5,9.4-30.9,17.4
	c-11.8,10.4-16,10.1-28.1,0.7c-0.3-0.3-1,0.3-2.1,0.3c7.3,7.3,7.6,15.6,3.8,24.6c-2.1,5.6-3.1,11.5-4.9,17c-0.7,2.4-2.1,4.9-3.5,6.9
	c-10.4,13.2-18.4,26.7-21.5,44.1c-2.4,12.5-8.3,24.6-13.2,36.8c-2.4,6.2-8,7.3-13.2,3.5c-2.4-1.7-5.2-3.5-8.7-5.6
	c-1.4,6.6-8.3,9.7-4.9,16.7c2.1-0.7,4.5-0.7,6.6-1.7c3.8-1.4,7.3-2.1,10.4,1c3.1,3.5,1.4,6.9,0,10.4c-1.7,6.2-3.1,12.8-5.2,19.1
	c-3.1,9.7-4.9,20.1-9.7,28.5c-5.9,9.4-6.9,18.4-5.2,28.5c1.4,9,1.4,18.1-8.3,23.6c2.4,4.2,4.5,8,5.9,10.8
	c-4.9,3.8-9.4,6.9-13.5,10.4c8,9.7,11.5-2.1,17-1.4c2.8,6.6,3.1,13.2,1,19.8c-1.7,5.6-0.7,10.8,1.4,16.3c3.1,8.3,6.2,16.7,9,25.3
	c2.1,6.6,0.7,9-5.6,12.5c-4.9,2.4-9,5.9-13.9,9c1.7,5.6,3.5,10.1,4.9,14.6s3.5,8.3,0,13.5c-2.8,4.2,0,6.6,7.6,9
	c0.7-0.7,1.4-1.7,1.7-2.8c0.7-3.1,1.4-7.3,5.9-6.9c4.9,0.3,6.6,4.2,7.3,8.7c0.3,2.4,0,5.6,1,7.6c5.6,11.8,5.2,24.6,6.2,37.1
	c0.7,5.9,1.4,11.8,2.8,17.4c2.4,10.1,6.6,19.8,7.6,30.2c1.4,10.4,0.3,21.2,8.3,29.9c1.4,1.4,2.1,4.2,1.7,6.2
	c-0.3,9.7,4.2,17.7,10.8,24c6.2,6.2,8.7,13.5,8.7,22.2c0,3.8,0,9.4,2.4,11.8c7.6,6.9,9.7,16.3,13.9,25.3c2.1,4.2,6.2,7.3,9,11.1
	c3.5,4.5,6.6,8.7,9.4,13.5c5.2,9,9.7,18.4,15.3,27.1c2.4,3.8,8,6.2,10.1,10.4c5.2,10.1,13.9,16.3,22.2,23.3
	c6.6,5.9,12.5,13.2,19.8,17.7c13.2,8.7,25,18.7,36.1,29.5c2.1,2.1,4.9,3.1,7.6,4.2c9.4,4.5,19.4,7.6,28.1,13.2
	c17.7,11.1,34.4,23.6,53.8,31.9c2.8,1,4.9,4.2,7.6,6.2c-2.8,5.6-4.9,10.1-7.6,15.6c2.1,1.4,4.5,2.8,7.3,4.5c0.7-3.5,1-6.2,2.1-8.7
	c4.2-9.4,13.2-10.4,19.4-2.4c1.7,2.4,3.8,4.5,6.2,6.9c10.8-4.2,19.8-1.7,29.5,4.5c7.3,4.5,17.4,2.4,24.6,8c0.7,0.3,2.1-0.7,3.1-0.3
	c2.4,0,5.2-0.3,7.6,0.7c8,3.1,15.6,5.9,24.3,6.9c14.6,1.7,29.2,4.9,43.7,7.3c1.4,0.3,3.1,0,4.5,0c3.8,0.3,7.3,0.3,11.1,1
	c16,1.7,31.9,4.5,47.9,4.9c30.2,0.7,60.8,0.3,91,0c4.5,0,9-0.3,13.2-1.4c31.2-6.9,62.8-13.9,94.1-20.5c18.1-3.8,36.8-6.6,54.9-9.7
	c1.4-0.3,3.5-0.7,3.5-1.4c0.7-5.6,5.6-5.2,9-6.6c6.9-2.8,14.6-4.2,20.8-8c15.6-10.1,32.6-15.6,51-16.7c2.8,0,6.6-1,7.6-2.8
	c5.6-8.7,14.2-9.4,23.3-11.1c6.2-1,12.2-3.1,18.1-5.6c5.2-2.1,9.7-5.2,14.6-7.6c6.2-3.5,12.2-6.9,18.4-10.1
	c7.3-3.5,14.6-8.3,22.2-9.4c14.2-2.1,27.4-6.2,39.2-14.2c5.9-3.8,11.8-7.6,18.4-10.1c16.7-5.6,30.2-15.6,43.1-27.1
	c4.2-3.5,9-6.2,13.5-9.4c4.2-2.8,9.4-5.2,12.5-8.7c8-9,16.7-16.7,27.8-21.9c-1.4-7.3,2.1-11.1,7.6-14.6c3.8-2.4,9-4.5,10.1-8
	c2.4-7.6,9-10.8,13.9-15.3c5.2-5.2,11.1-9.7,16.3-14.9c5.9-6.2,11.5-10.1,20.5-5.9c6.2,2.8,6.9,2.1,13.2-2.8c-4.5-0.3-8.3,0-11.8-1
	c-2.1-0.7-4.2-3.1-4.5-5.6c-0.3-1.4,1.7-3.8,3.1-4.9s7.1-4.2,8.3-5.9C1292,1073.4,1302.7,1057.7,1302.7,1057.7z M411.5,982.2
	c1-0.3,1.7-0.7,2.8-1c0.7,2.4,1.4,4.5,2.4,8.3C411.1,987.4,410.8,985,411.5,982.2z M1107.9,1173.8c-3.5-7.6-0.3-13.9,3.5-22.6
	C1117.3,1166.2,1116.3,1171,1107.9,1173.8z"/>
<text transform="matrix(1 0 0 1 416.71 989.4669)" class="st1 st2 st3">3A</text>
</svg>
